<?xml version="1.0" standalone="no"?>
<!DOCTYPE svg PUBLIC "-//W3C//DTD SVG 20010904//EN"
 "http://www.w3.org/TR/2001/REC-SVG-20010904/DTD/svg10.dtd">
<svg version="1.0" xmlns="http://www.w3.org/2000/svg"
 width="99.000000pt" height="60.000000pt" viewBox="0 0 99.000000 60.000000"
 preserveAspectRatio="xMidYMid meet">
<metadata>
Created by potrace 1.10, written by Peter Selinger 2001-2011
</metadata>
<g transform="translate(0.000000,60.000000) scale(0.100000,-0.100000)"
fill="#f3f5f7" stroke="none">
<path d="M215 503 c-15 -43 -31 -84 -33 -92 -4 -10 0 -13 12 -8 10 4 47 10 84
13 l66 7 -90 -75 c-58 -49 -92 -72 -96 -64 -5 6 -8 1 -8 -13 l0 -24 23 20 c49
44 158 133 162 133 3 0 -1 -10 -9 -22 -8 -13 -31 -63 -51 -113 -20 -50 -40
-94 -45 -98 -6 -7 -107 108 -147 170 -18 27 -17 28 19 37 25 6 28 3 37 -36
l10 -43 -5 47 c-4 39 -2 47 13 51 16 4 16 5 -2 6 -16 1 -20 9 -23 46 -2 44 -2
44 24 35 14 -6 30 -7 36 -4 6 4 -10 16 -37 26 -26 10 -49 17 -52 15 -2 -3 1
-24 6 -48 16 -70 15 -79 -16 -79 -79 -1 -79 -2 36 -144 l106 -132 57 141 c32
77 61 147 66 155 7 11 -3 31 -37 73 -25 32 -53 68 -62 79 -15 19 -17 17 -44
-59z m83 -23 c37 -45 37 -45 -9 -26 -19 7 -42 16 -52 19 -15 6 -16 10 -5 27
18 28 28 25 66 -20z m-19 -34 c23 -13 22 -13 -20 -19 -49 -6 -54 -4 -46 18 8
18 34 19 66 1z"/>
<path d="M413 313 c-3 -10 -23 -60 -44 -110 l-38 -93 25 0 c16 0 28 8 36 25 9
21 18 25 54 25 36 0 43 -3 48 -25 5 -19 13 -25 32 -25 30 0 32 -10 -24 127
-31 79 -40 93 -60 93 -13 0 -25 -8 -29 -17z m34 -111 c-26 -5 -29 0 -16 38
l12 33 11 -34 c10 -30 9 -34 -7 -37z"/>
<path d="M634 311 c-30 -18 -51 -59 -48 -91 1 -8 2 -22 3 -31 2 -25 48 -66 81
-73 17 -3 44 -3 60 0 26 6 30 11 30 37 0 24 -3 28 -12 19 -21 -21 -85 -15
-102 10 -23 32 -20 55 10 85 25 25 43 27 87 8 13 -6 17 -2 17 18 0 41 -71 52
-126 18z"/>
<path d="M810 306 c0 -23 3 -24 36 -19 l36 6 -3 -89 c-3 -88 -3 -89 21 -89 24
0 24 1 21 88 l-3 87 36 0 c29 0 36 4 36 20 0 19 -7 20 -90 20 -89 0 -90 0 -90
-24z"/>
<path d="M231 24 c0 -16 3 -23 6 -16 4 10 8 10 21 0 12 -9 11 -5 -3 12 -11 14
-21 27 -22 29 -2 2 -3 -9 -2 -25z"/>
<path d="M250 39 c0 -5 5 -7 10 -4 6 3 10 8 10 11 0 2 -4 4 -10 4 -5 0 -10 -5
-10 -11z"/>
<path d="M290 25 c0 -17 5 -25 18 -25 14 0 15 2 2 10 -13 9 -13 10 0 10 12 0
13 2 1 9 -11 7 -11 9 0 14 10 4 9 6 -3 6 -13 1 -18 -7 -18 -24z"/>
<path d="M340 25 c0 -17 5 -25 18 -25 14 0 15 2 2 10 -13 9 -13 10 0 10 12 0
13 2 1 9 -11 7 -11 9 0 14 10 4 9 6 -3 6 -13 1 -18 -7 -18 -24z"/>
<path d="M390 24 c0 -23 2 -24 15 -10 19 19 19 36 0 36 -9 0 -15 -10 -15 -26z"/>
<path d="M476 32 c-4 -13 -5 -26 -2 -29 10 -11 18 4 14 29 l-4 23 -8 -23z"/>
<path d="M518 23 c3 -17 7 -22 10 -13 3 8 9 21 15 28 7 9 4 12 -10 12 -17 0
-19 -5 -15 -27z"/>
<path d="M595 25 c0 -27 10 -33 18 -12 4 9 8 9 15 -1 7 -11 11 -8 14 12 3 14
1 26 -3 26 -5 0 -9 -5 -9 -12 0 -9 -3 -9 -12 0 -18 18 -23 15 -23 -13z"/>
<path d="M664 35 c-4 -10 -1 -21 7 -26 20 -12 34 -5 34 17 0 24 -33 31 -41 9z
m31 -4 c3 -5 1 -12 -5 -16 -5 -3 -10 1 -10 9 0 18 6 21 15 7z"/>
<path d="M730 40 c0 -8 4 -21 9 -29 7 -11 11 -10 20 7 14 26 14 43 1 22 -9
-13 -11 -13 -20 0 -9 13 -10 13 -10 0z"/>
<path d="M792 25 c0 -17 2 -22 5 -12 2 9 2 23 0 30 -3 6 -5 -1 -5 -18z"/>
<path d="M820 26 c0 -31 6 -34 13 -6 3 11 1 23 -4 26 -5 3 -9 -6 -9 -20z"/>
<path d="M846 33 c-4 -9 -3 -20 2 -25 6 -6 11 1 14 16 6 29 -6 35 -16 9z"/>
<path d="M883 34 c-7 -20 11 -38 31 -31 18 7 22 27 5 27 -5 0 -7 -4 -4 -10 3
-5 2 -10 -4 -10 -19 0 -21 19 -4 29 17 10 17 10 0 11 -10 0 -20 -7 -24 -16z"/>
</g>
</svg>
